# xmcd
#
# Track frame offsets: 
#        150
#        12844
#        26338
#        41984
#        58000
#        73861
#        87616
#        103312
#        118360
#        132985
#        148749
#        159038
#        175893
#        185667
#        203315
#        214256
#        223711
#        233280
#
# Disc length: 3356 seconds
#
# Revision: 4
# Processed by: cddbd v1.5.2PL0 Copyright (c) Steve Scherf et al.
# Submitted via: ExactAudioCopy v1.0b1
#
DISCID=0a0d1a12
DTITLE=B.B. King - Blues in My Heart [Bonus Tracks]
DYEAR=1963
DGENRE=Blues
TTITLE0=You're Gonna Miss Me (stereo)
TTITLE1=Got 'Em Bad (stereo)
TTITLE2=Troubles Don't Last (stereo)
TTITLE3=Your Letter (stereo)
TTITLE4=I Can't Explain (stereo)
TTITLE5=The Wrong Road (stereo)
TTITLE6=I Need You Baby (stereo)
TTITLE7=So Many Days (stereo)
TTITLE8=Downhearted (How Blue Can You Get?) (stereo)
TTITLE9=Strange Things (stereo)
TTITLE10=Your Good Lovin' Man (stereo)
TTITLE11=Love My Baby (stereo)
TTITLE12=My Baby's An Angel (stereo)
TTITLE13=Loving You In Vain (stereo)
TTITLE14=My Baby's Dynamite (stereo)
TTITLE15=What Have I Done (stereo)
TTITLE16=You've Got My Hands Tied (stereo)
TTITLE17=My Sometime Baby (stereo)
EXTD=
EXTT0=
EXTT1=
EXTT2=
EXTT3=
EXTT4=
EXTT5=
EXTT6=
EXTT7=
EXTT8=
EXTT9=
EXTT10=
EXTT11=
EXTT12=
EXTT13=
EXTT14=
EXTT15=
EXTT16=
EXTT17=
PLAYORDER=
